PathFileType  4	(X/Y/Z) C:\Users\antoi\Documents\MyRepositories\mobilecap\ResultsAnalysis
DataRate	CameraRate	NumFrames	NumMarkers	Units	OrigDataRate	OrigDataStartFrame	OrigNumFrames
100.0	100.0	5	51	mm	100.0	179	1424
Frame#	Time	r_knee			r_shank_antsup			r_ankle			r_calc			r_5meta			r_toe			L_knee			L_shank_antsup			L_ankle			L_calc			L_5meta			L_toe			r_sh2			r_sh3			r_sh4			L_sh2			L_sh3			r_thigh1			r_thigh2			r_thigh3			r_thigh4			r_thigh5			L_thigh1			L_thigh2			L_thigh3			L_thigh4			r.ASIS			r.PSIS			L.ASIS			L.PSIS			C7			R_Shoulder			L_Shoulder			R_Sternum			L_Sternum			R_humerus			R_elbow_med			R_elbow_lat			R_forearm			R_wrist_radius			R_wrist_ulna			L_humerus			L_elbow_med			L_elbow_lat			L_forearm			L_wrist_radius			L_wrist_ulna			R_HJC			L_HJC			R_HJC_reg			L_HJC_reg			
		X1	Y1	Z1	X2	Y2	Z2	X3	Y3	Z3	X4	Y4	Z4	X5	Y5	Z5	X6	Y6	Z6	X7	Y7	Z7	X8	Y8	Z8	X9	Y9	Z9	X10	Y10	Z10	X11	Y11	Z11	X12	Y12	Z12	X13	Y13	Z13	X14	Y14	Z14	X15	Y15	Z15	X16	Y16	Z16	X17	Y17	Z17	X18	Y18	Z18	X19	Y19	Z19	X20	Y20	Z20	X21	Y21	Z21	X22	Y22	Z22	X23	Y23	Z23	X24	Y24	Z24	X25	Y25	Z25	X26	Y26	Z26	X27	Y27	Z27	X28	Y28	Z28	X29	Y29	Z29	X30	Y30	Z30	X31	Y31	Z31	X32	Y32	Z32	X33	Y33	Z33	X34	Y34	Z34	X35	Y35	Z35	X36	Y36	Z36	X37	Y37	Z37	X38	Y38	Z38	X39	Y39	Z39	X40	Y40	Z40	X41	Y41	Z41	X42	Y42	Z42	X43	Y43	Z43	X44	Y44	Z44	X45	Y45	Z45	X46	Y46	Z46	X47	Y47	Z47	X48	Y48	Z48	X49	Y49	Z49	X50	Y50	Z50	X51	Y51	Z51	

179	1.78000000	-318.17287	505.95229	-472.48336	-278.84801	441.98616	-472.15902	-335.69833	99.53593	-427.80983	-397.44761	62.07067	-468.39792	-234.87810	44.43508	-378.17432	-182.33338	69.67402	-429.64776	-313.54269	502.57583	-868.33332	-281.31771	416.51135	-889.05708	-327.54365	100.09204	-905.65722	-388.82598	61.71581	-863.98269	-219.81116	41.35898	-955.49177	-176.90054	63.05510	-900.88748	-299.95067	335.90522	-434.20071	-358.33819	454.42780	-455.43187	-373.65137	345.93946	-436.44189	-370.15457	422.83709	-882.61768	-368.17919	302.35301	-906.97423	-249.77589	823.17831	-480.06994	-256.50364	712.22459	-472.20367	-315.42381	692.29904	-449.79746	-363.90934	827.27705	-477.31019	-365.27474	710.02950	-469.68622	-288.96396	774.48263	-888.77742	-278.11382	637.75696	-881.22023	-393.54354	766.58361	-834.18626	-378.40942	627.25125	-841.26574	-224.94974	976.79959	-546.66286	-413.40891	1016.08379	-627.30814	-222.18806	956.95919	-798.94837	-419.47029	1015.66982	-725.95170	-381.25533	1426.33862	-694.36004	-287.91698	1404.08174	-519.46273	-309.67724	1399.62548	-868.55136	-238.83048	1399.46857	-677.50684	-234.10759	1397.22013	-713.87065	-301.66973	1275.70021	-443.11416	-375.64277	1065.76894	-472.65866	-360.22233	1091.23311	-396.29301	-223.03449	1095.61042	-430.25880	-102.59402	1097.40215	-476.03725	-93.14146	1063.95693	-467.55378	-321.77641	1284.31464	-928.65680	-385.38659	1063.73065	-850.10858	-385.64521	1086.28343	-936.80599	-280.51912	1114.36944	-929.85337	-133.69569	1133.76039	-915.89542	-126.84012	1102.72414	-928.54143	-303.31610	897.75579	-567.00268	-304.10146	887.39151	-773.21175	-292.57902	894.61083	-577.27339	-302.82401	893.91145	-743.98943	
180	1.79000000	-317.60545	505.99741	-472.48219	-278.27453	442.03104	-472.28321	-335.57276	99.62890	-427.71311	-397.44104	62.11578	-468.55805	-234.85177	44.30318	-378.28378	-182.28032	69.57247	-429.60638	-313.07216	502.46302	-868.19316	-280.96613	416.48237	-889.07864	-327.40289	100.05834	-905.41803	-388.76417	61.80940	-863.94316	-219.77850	41.29558	-955.45718	-176.81696	62.88074	-900.88509	-299.45849	335.91507	-434.16274	-357.75961	454.52146	-455.41614	-373.07234	345.89918	-436.32593	-369.71762	422.93070	-883.09671	-367.75806	302.27606	-907.18668	-249.29884	823.11294	-480.55528	-256.09918	712.33900	-472.45860	-314.84599	692.23842	-449.97187	-363.52351	827.13137	-477.57623	-364.81232	709.91461	-469.75716	-287.96474	774.21070	-888.60260	-277.23899	637.67391	-881.01343	-392.86385	766.69459	-835.02864	-377.88169	627.29963	-842.13549	-224.87692	976.70899	-546.81005	-413.26681	1016.11823	-627.74726	-221.77025	956.71578	-799.06884	-419.06885	1015.68906	-726.61134	-380.58123	1426.42468	-694.79087	-287.43368	1404.17868	-519.59146	-308.88997	1399.67028	-868.86183	-238.19991	1399.49638	-677.67771	-233.60037	1397.13038	-713.82522	-301.29747	1275.91164	-443.25448	-374.99108	1065.65959	-472.72488	-359.45871	1091.30977	-396.64137	-222.46632	1096.02157	-430.30274	-101.99799	1098.06059	-476.15675	-92.47129	1064.61046	-467.59159	-320.89871	1284.37011	-928.71923	-384.43143	1063.40681	-850.63882	-384.75364	1086.32353	-937.15391	-279.73662	1114.60225	-930.06470	-132.90117	1134.12400	-915.89269	-126.00402	1103.10596	-928.67138	-303.34654	897.73249	-567.25921	-303.76841	887.24763	-773.46326	-292.64114	894.50145	-577.58808	-302.42676	893.77779	-744.32499	
181	1.80000000	-316.94515	506.01219	-472.55186	-277.97533	442.58223	-472.46667	-335.55220	99.63824	-427.79285	-397.43474	62.08607	-468.72983	-234.83070	44.32487	-378.24939	-182.22329	69.47177	-429.55465	-312.56715	502.35506	-868.12918	-280.63737	416.45312	-889.07456	-327.27987	99.95772	-904.98690	-388.70544	61.90070	-863.90293	-219.74720	41.28308	-955.46527	-176.72963	62.75306	-900.90299	-298.80909	335.95201	-434.32036	-357.10981	454.68361	-455.23293	-372.52605	346.12851	-436.20597	-369.33529	422.94996	-883.44010	-367.30686	302.34453	-907.29156	-248.89334	823.04784	-481.10914	-255.56759	712.35532	-472.77103	-314.24483	692.16052	-450.14169	-363.04949	827.11797	-477.56464	-364.23239	709.83513	-469.80405	-286.85234	774.24176	-889.11822	-276.36713	637.59686	-880.84189	-392.15861	766.74094	-835.88278	-377.35447	627.42209	-843.15342	-224.85886	976.65434	-546.92368	-413.12647	1016.19852	-628.17799	-221.38000	956.55408	-799.10565	-418.79145	1015.79740	-727.20234	-379.96903	1426.53812	-695.18264	-287.00144	1404.26052	-519.73187	-308.04732	1399.74299	-869.13016	-237.56290	1399.47904	-677.82887	-232.88453	1397.19626	-713.74958	-300.92297	1276.06003	-443.49006	-374.25095	1065.70673	-472.87654	-358.75930	1091.57619	-396.83908	-221.89361	1096.46193	-430.30252	-101.38730	1098.77621	-476.19767	-91.83233	1065.35771	-467.46940	-319.93299	1284.56858	-929.16136	-383.58479	1063.27853	-850.99287	-383.97996	1086.31013	-937.39121	-278.94720	1114.80508	-930.32509	-132.13562	1134.41616	-915.96898	-125.16282	1103.41911	-928.77521	-303.43476	897.75405	-567.48329	-303.48485	887.18357	-773.68336	-292.63046	894.43121	-577.80454	-302.16750	893.75572	-744.51444	
182	1.81000000	-316.27228	506.00813	-472.69209	-277.61590	442.94224	-472.68733	-335.57858	99.60930	-427.94371	-397.42008	62.04243	-468.80820	-234.79290	44.40493	-378.22701	-182.15276	69.43581	-429.56588	-312.01812	502.34458	-868.24936	-280.34557	416.42195	-888.99242	-327.18356	99.85733	-904.51600	-388.65284	61.99047	-863.87176	-219.72695	41.27507	-955.47666	-176.66343	62.66197	-900.90180	-298.23481	335.81830	-434.49652	-356.48612	454.76391	-455.10995	-371.98812	346.40313	-436.03238	-369.00146	422.92549	-883.71082	-366.88679	302.47572	-907.42993	-248.53198	823.04838	-481.57545	-255.01490	712.34435	-473.14163	-313.71868	692.15608	-450.24107	-362.57735	827.18604	-477.38925	-363.69425	709.79920	-469.83883	-285.69748	774.50954	-890.10541	-275.52579	637.50020	-880.75225	-391.53795	766.74851	-836.70174	-376.90488	627.52249	-843.93577	-224.92801	976.58982	-547.04045	-412.99775	1016.31468	-628.57241	-221.04133	956.49633	-799.14130	-418.58749	1016.08092	-727.66961	-379.34623	1426.69083	-695.44407	-286.60678	1404.33662	-520.02964	-307.14105	1399.78512	-869.26126	-236.91467	1399.49611	-677.91273	-232.05433	1397.34569	-713.68530	-300.56444	1276.17231	-443.79442	-373.56914	1065.87818	-473.09415	-358.29521	1091.80873	-396.79349	-221.30349	1096.95946	-430.30049	-100.82740	1099.49094	-476.12032	-91.21497	1066.09050	-467.42967	-318.92122	1284.75459	-929.71767	-382.78009	1063.61301	-851.45187	-383.14409	1086.39313	-937.83026	-278.13437	1115.00289	-930.68590	-131.38517	1134.66192	-916.21812	-124.32370	1103.69039	-928.88714	-303.59531	897.78130	-567.72734	-303.29870	887.25120	-773.92928	-292.60616	894.26241	-578.08158	-302.00760	893.86910	-744.74986	
183	1.82000000	-315.67310	505.98397	-472.82089	-277.04785	442.85471	-472.93209	-335.53757	99.61117	-427.98751	-397.38333	62.08399	-468.77817	-234.75253	44.44213	-378.23386	-182.10234	69.40759	-429.63064	-311.51529	502.44878	-868.53702	-280.07467	416.39025	-888.88916	-327.10153	99.85044	-904.30169	-388.60650	62.06352	-863.85627	-219.71582	41.24750	-955.48200	-176.62209	62.58666	-900.89272	-298.03216	335.19238	-434.49641	-355.91696	454.76460	-455.09991	-371.20863	345.59813	-435.73381	-368.69725	422.92033	-884.00848	-366.55887	302.50243	-907.64687	-248.14989	823.13290	-481.96564	-254.49585	712.37079	-473.60651	-313.21771	692.18259	-450.28476	-362.21742	827.18789	-477.27869	-363.30410	709.73442	-469.87025	-284.63088	774.56931	-890.55741	-274.70753	637.35895	-880.64941	-390.97096	766.79082	-837.71526	-376.54731	627.56685	-844.56071	-225.03779	976.58374	-547.21081	-412.88585	1016.50898	-628.96369	-220.77497	956.53702	-799.21407	-418.38010	1016.37839	-728.00463	-378.65725	1426.86164	-695.64186	-286.18464	1404.40366	-520.43331	-306.22763	1399.81243	-869.35992	-236.25952	1399.53710	-678.03072	-231.27378	1397.37037	-713.68169	-300.24493	1276.27148	-444.04103	-373.00735	1065.97878	-473.21925	-357.95345	1091.76570	-396.90026	-220.77137	1097.41555	-430.30318	-100.32262	1100.17520	-476.02328	-90.59544	1066.76393	-467.54140	-317.91913	1284.74397	-929.98243	-381.98105	1064.06941	-852.09300	-382.22763	1086.60874	-938.44824	-277.31502	1115.15606	-931.02633	-130.64028	1134.84631	-916.43877	-123.50569	1103.88261	-928.97433	-303.74124	897.86173	-567.97544	-303.16479	887.39303	-774.18000	-292.66431	894.26571	-578.37217	-301.90728	894.04607	-744.98704	
